<svg height="682pt" viewBox="-21 -124 682.66669 682" width="682pt" xmlns="http://www.w3.org/2000/svg"><path d="m627.484375-6.449219h-21.542969c-6.910156 0-12.507812 5.601563-12.507812 12.511719 0 6.914062 5.597656 12.515625 12.507812 12.515625h9.027344v98.066406h-453.816406v-98.066406h344.949218c6.910157 0 12.515626-5.601563 12.515626-12.515625 0-6.910156-5.605469-12.511719-12.515626-12.511719h-357.464843c-6.910157 0-12.511719 5.601563-12.511719 12.511719v205.164062h-123.609375c-6.910156 0-12.515625 5.601563-12.515625 12.515626v191.539062c0 6.910156 5.605469 12.515625 12.515625 12.515625h614.96875c6.910156 0 12.515625-5.605469 12.515625-12.515625v-409.21875c0-6.910156-5.601562-12.511719-12.515625-12.511719zm-339.382813 242.707031v12.253907h-125.1875c-6.90625 0-12.507812 5.601562-12.507812 12.511719 0 6.914062 5.601562 12.515624 12.507812 12.515624h124.992188v19.695313h-262.875v-19.695313h37.671875c6.910156 0 12.511719-5.601562 12.511719-12.515624 0-6.910157-5.601563-12.511719-12.511719-12.511719h-37.671875v-12.253907zm-263.070312 82h263.070312v84.507813h-263.070312zm589.9375 84.507813h-301.839844v-56.773437h61.152344c6.910156 0 12.511719-5.605469 12.511719-12.511719 0-6.910157-5.601563-12.515625-12.511719-12.515625h-61.152344v-31.242188h60.957032c6.910156 0 12.511718-5.597656 12.511718-12.507812 0-6.914063-5.601562-12.515625-12.511718-12.515625h-60.957032v-28.441407h60.957032c6.910156 0 12.511718-5.601562 12.511718-12.515624 0-6.910157-5.601562-12.515626-12.511718-12.515626h-212.933594v-69.554687h453.816406zm0 0"/><path d="m171.828125 67.609375c0 18.59375 15.125 33.726563 33.71875 33.726563s33.71875-15.132813 33.71875-33.726563-15.125-33.71875-33.71875-33.71875-33.71875 15.125-33.71875 33.71875zm42.414063 0c0 4.796875-3.898438 8.695313-8.695313 8.695313s-8.691406-3.898438-8.691406-8.695313c0-4.792969 3.894531-8.695313 8.691406-8.695313s8.695313 3.902344 8.695313 8.695313zm0 0"/><path d="m245.488281 67.609375c0 18.59375 15.132813 33.726563 33.726563 33.726563s33.71875-15.132813 33.71875-33.726563-15.125-33.71875-33.71875-33.71875-33.726563 15.125-33.726563 33.71875zm42.417969 0c0 4.796875-3.902344 8.695313-8.691406 8.695313-4.796875 0-8.699219-3.898438-8.699219-8.695313 0-4.792969 3.902344-8.695313 8.699219-8.695313 4.789062 0 8.691406 3.902344 8.691406 8.695313zm0 0"/><path d="m319.15625 67.609375c0 18.59375 15.125 33.726563 33.71875 33.726563s33.722656-15.132813 33.722656-33.726563-15.128906-33.71875-33.722656-33.71875-33.71875 15.125-33.71875 33.71875zm42.414062 0c0 4.796875-3.898437 8.695313-8.695312 8.695313-4.792969 0-8.695312-3.898438-8.695312-8.695313 0-4.792969 3.902343-8.695313 8.695312-8.695313 4.796875 0 8.695312 3.902344 8.695312 8.695313zm0 0"/><path d="m555.835938 18.628906c.953124 0 1.914062-.105468 2.875-.332031l.433593-.101563c6.722657-1.582031 10.898438-8.320312 9.316407-15.042968-1.582032-6.730469-8.3125-10.898438-15.046876-9.316406l-.429687.097656c-6.730469 1.582031-10.898437 8.320312-9.316406 15.046875 1.351562 5.761719 6.492187 9.648437 12.167969 9.648437zm0 0"/><path d="m265.09375 331.183594h-119.632812c-6.910157 0-12.515626 5.601562-12.515626 12.515625v36.714843c0 6.914063 5.605469 12.511719 12.515626 12.511719h119.632812c6.914062 0 12.515625-5.597656 12.515625-12.511719v-36.714843c0-6.914063-5.601563-12.515625-12.515625-12.515625zm-12.511719 36.71875h-94.609375v-11.6875h94.609375zm0 0"/><path d="m104.414062 331.183594h-55.894531c-6.910156 0-12.511719 5.601562-12.511719 12.515625 0 6.910156 5.601563 12.515625 12.511719 12.515625h55.894531c6.910157 0 12.515626-5.605469 12.515626-12.515625 0-6.914063-5.601563-12.515625-12.515626-12.515625zm0 0"/><path d="m104.414062 368.980469h-55.894531c-6.910156 0-12.511719 5.601562-12.511719 12.515625 0 6.910156 5.601563 12.511718 12.511719 12.511718h55.894531c6.910157 0 12.515626-5.601562 12.515626-12.511718 0-6.914063-5.601563-12.515625-12.515626-12.515625zm0 0"/><path d="m434.800781 318.257812h146.402344c6.914063 0 12.511719-5.597656 12.511719-12.511718v-131.207032c0-6.910156-5.597656-12.515624-12.511719-12.515624h-146.402344c-6.910156 0-12.515625 5.605468-12.515625 12.515624v131.207032c0 6.914062 5.605469 12.511718 12.515625 12.511718zm12.511719-131.203124h121.378906v106.179687h-121.378906zm0 0"/><path d="m218.324219 187.054688h155.761719c6.910156 0 12.515624-5.605469 12.515624-12.515626 0-6.910156-5.605468-12.515624-12.515624-12.515624h-155.761719c-6.910157 0-12.511719 5.605468-12.511719 12.515624 0 6.910157 5.601562 12.515626 12.511719 12.515626zm0 0"/><path d="m581.203125 342.035156h-145.742187c-6.910157 0-12.515626 5.597656-12.515626 12.511719 0 6.910156 5.605469 12.515625 12.515626 12.515625h145.742187c6.914063 0 12.511719-5.605469 12.511719-12.515625 0-6.914063-5.597656-12.511719-12.511719-12.511719zm0 0"/><path d="m113.148438 273.589844c.949218 0 1.914062-.105469 2.875-.335938l.429687-.097656c6.730469-1.582031 10.90625-8.320312 9.320313-15.046875-1.585938-6.726563-8.316407-10.894531-15.046876-9.316406l-.429687.101562c-6.726563 1.582031-10.898437 8.320313-9.316406 15.042969 1.355469 5.765625 6.496093 9.652344 12.167969 9.652344zm0 0"/></svg>